<svg xmlns="http://www.w3.org/2000/svg" width="19.231" height="13.462" viewBox="0 0 19.231 13.462">
  <path id="Top_bar_Header_Icon" data-name="Top bar/Header/Icon" d="M14.849,11.509a.949.949,0,0,1,.007,1.29L10.8,17.069h15.45a.913.913,0,0,1,0,1.823H10.8l4.061,4.27a.956.956,0,0,1-.007,1.29.836.836,0,0,1-1.222-.007l-5.5-5.819h0a1.029,1.029,0,0,1-.18-.287.907.907,0,0,1-.067-.351.938.938,0,0,1,.247-.638l5.5-5.819A.823.823,0,0,1,14.849,11.509Z" transform="translate(-7.882 -11.252)" fill="#1f2937"/>
</svg>
