<svg xmlns="http://www.w3.org/2000/svg" width="29" height="29" viewBox="0 0 29 29">
  <path id="Icon_ionic-ios-close-circle" data-name="Icon ionic-ios-close-circle" d="M17.875,3.375a14.5,14.5,0,1,0,14.5,14.5A14.5,14.5,0,0,0,17.875,3.375Zm3.674,19.749L17.875,19.45,14.2,23.124a1.114,1.114,0,1,1-1.575-1.575L16.3,17.875,12.626,14.2A1.114,1.114,0,0,1,14.2,12.626L17.875,16.3l3.674-3.674A1.114,1.114,0,1,1,23.124,14.2L19.45,17.875l3.674,3.674a1.119,1.119,0,0,1,0,1.575A1.107,1.107,0,0,1,21.549,23.124Z" transform="translate(-3.375 -3.375)" fill="#2a2e39"/>
</svg>
