<svg xmlns="http://www.w3.org/2000/svg" width="10.5" height="12" viewBox="0 0 10.5 12">
  <path id="Icon_awesome-building" data-name="Icon awesome-building" d="M10.219,11.25H9.75V.563A.562.562,0,0,0,9.188,0H1.313A.562.562,0,0,0,.75.563V11.25H.281A.281.281,0,0,0,0,11.531V12H10.5v-.469A.281.281,0,0,0,10.219,11.25ZM3,1.781A.281.281,0,0,1,3.281,1.5h.938a.281.281,0,0,1,.281.281v.938A.281.281,0,0,1,4.219,3H3.281A.281.281,0,0,1,3,2.719Zm0,2.25a.281.281,0,0,1,.281-.281h.938a.281.281,0,0,1,.281.281v.938a.281.281,0,0,1-.281.281H3.281A.281.281,0,0,1,3,4.969ZM4.219,7.5H3.281A.281.281,0,0,1,3,7.219V6.281A.281.281,0,0,1,3.281,6h.938a.281.281,0,0,1,.281.281v.938A.281.281,0,0,1,4.219,7.5ZM6,11.25H4.5V9.281A.281.281,0,0,1,4.781,9h.938A.281.281,0,0,1,6,9.281ZM7.5,7.219a.281.281,0,0,1-.281.281H6.281A.281.281,0,0,1,6,7.219V6.281A.281.281,0,0,1,6.281,6h.938a.281.281,0,0,1,.281.281Zm0-2.25a.281.281,0,0,1-.281.281H6.281A.281.281,0,0,1,6,4.969V4.031a.281.281,0,0,1,.281-.281h.938a.281.281,0,0,1,.281.281Zm0-2.25A.281.281,0,0,1,7.219,3H6.281A.281.281,0,0,1,6,2.719V1.781A.281.281,0,0,1,6.281,1.5h.938a.281.281,0,0,1,.281.281Z" fill="#000"/>
</svg>
