<svg xmlns="http://www.w3.org/2000/svg" width="20" height="22.857" viewBox="0 0 20 22.857">
  <path id="Icon_awesome-calendar-alt" data-name="Icon awesome-calendar-alt" d="M0,20.714a2.143,2.143,0,0,0,2.143,2.143H17.857A2.143,2.143,0,0,0,20,20.714V8.571H0Zm14.286-8.75a.537.537,0,0,1,.536-.536h1.786a.537.537,0,0,1,.536.536V13.75a.537.537,0,0,1-.536.536H14.821a.537.537,0,0,1-.536-.536Zm0,5.714a.537.537,0,0,1,.536-.536h1.786a.537.537,0,0,1,.536.536v1.786a.537.537,0,0,1-.536.536H14.821a.537.537,0,0,1-.536-.536ZM8.571,11.964a.537.537,0,0,1,.536-.536h1.786a.537.537,0,0,1,.536.536V13.75a.537.537,0,0,1-.536.536H9.107a.537.537,0,0,1-.536-.536Zm0,5.714a.537.537,0,0,1,.536-.536h1.786a.537.537,0,0,1,.536.536v1.786a.537.537,0,0,1-.536.536H9.107a.537.537,0,0,1-.536-.536ZM2.857,11.964a.537.537,0,0,1,.536-.536H5.179a.537.537,0,0,1,.536.536V13.75a.537.537,0,0,1-.536.536H3.393a.537.537,0,0,1-.536-.536Zm0,5.714a.537.537,0,0,1,.536-.536H5.179a.537.537,0,0,1,.536.536v1.786A.537.537,0,0,1,5.179,20H3.393a.537.537,0,0,1-.536-.536Zm15-14.821H15.714V.714A.716.716,0,0,0,15,0H13.571a.716.716,0,0,0-.714.714V2.857H7.143V.714A.716.716,0,0,0,6.429,0H5a.716.716,0,0,0-.714.714V2.857H2.143A2.143,2.143,0,0,0,0,5V7.143H20V5A2.143,2.143,0,0,0,17.857,2.857Z" fill="#0181e3"/>
</svg>
