<svg xmlns="http://www.w3.org/2000/svg" width="27.6" height="24.905" viewBox="0 0 27.6 24.905">
  <g id="Group_3123" data-name="Group 3123" transform="translate(159 19)">
    <g id="Group_3122" data-name="Group 3122" transform="translate(-159 -19)">
      <g id="Group_3121" data-name="Group 3121" transform="translate(0 0)">
        <path id="Path_9521" data-name="Path 9521" d="M213.078,133a1.078,1.078,0,1,0,0,2.156h1.132a1.078,1.078,0,1,0,0-2.156Z" transform="translate(-192.001 -124.806)"/>
        <path id="Path_9522" data-name="Path 9522" d="M-132.478-2.72A1.078,1.078,0,0,0-131.4-3.8v-7.008a4.317,4.317,0,0,0-4.312-4.313h-3.254a1.078,1.078,0,0,1-1.021-.731l-.326-.958A3.234,3.234,0,0,0-143.375-19h-6.888a3.243,3.243,0,0,0-3.042,2.136l-.373,1.034a1.081,1.081,0,0,1-1.014.712h0a4.317,4.317,0,0,0-4.3,4.313v12.4A4.317,4.317,0,0,0-154.688,5.9h18.975A4.317,4.317,0,0,0-131.4,1.592,1.078,1.078,0,0,0-132.478.514a1.078,1.078,0,0,0-1.078,1.078,2.159,2.159,0,0,1-2.156,2.156h-18.975a2.159,2.159,0,0,1-2.156-2.156v-12.4a2.159,2.159,0,0,1,2.156-2.156h.006A3.243,3.243,0,0,0-151.65-15.1l.373-1.034a1.081,1.081,0,0,1,1.014-.712h6.888a1.078,1.078,0,0,1,1.021.731l.326.958a3.234,3.234,0,0,0,3.062,2.192h3.254a2.159,2.159,0,0,1,2.156,2.156V-3.8A1.078,1.078,0,0,0-132.478-2.72Z" transform="translate(159 19)"/>
        <path id="Path_9523" data-name="Path 9523" d="M-55.262,113A6.746,6.746,0,0,0-62,119.738a6.746,6.746,0,0,0,6.738,6.738,6.746,6.746,0,0,0,6.738-6.738A6.746,6.746,0,0,0-55.262,113Zm0,11.32a4.587,4.587,0,0,1-4.582-4.582,4.587,4.587,0,0,1,4.582-4.582,4.587,4.587,0,0,1,4.582,4.582A4.587,4.587,0,0,1-55.262,124.32Z" transform="translate(67.229 -105.884)" fill="#f26868"/>
      </g>
    </g>
  </g>
</svg>
