<svg xmlns="http://www.w3.org/2000/svg" xmlns:xlink="http://www.w3.org/1999/xlink" width="76.167" height="61.625" viewBox="0 0 76.167 61.625">
  <defs>
    <filter id="Path_7" x="20.373" y="15.981" width="35.42" height="35.42" filterUnits="userSpaceOnUse">
      <feOffset dy="3" input="SourceAlpha"/>
      <feGaussianBlur stdDeviation="3" result="blur"/>
      <feFlood flood-opacity="0.161"/>
      <feComposite operator="in" in2="blur"/>
      <feComposite in="SourceGraphic"/>
    </filter>
    <filter id="Path_8" x="0" y="0" width="76.167" height="61.625" filterUnits="userSpaceOnUse">
      <feOffset dy="3" input="SourceAlpha"/>
      <feGaussianBlur stdDeviation="3" result="blur-2"/>
      <feFlood flood-opacity="0.161"/>
      <feComposite operator="in" in2="blur-2"/>
      <feComposite in="SourceGraphic"/>
    </filter>
  </defs>
  <g id="Icon_ionic-ios-camera" data-name="Icon ionic-ios-camera" transform="translate(4.5 -1.875)">
    <g transform="matrix(1, 0, 0, 1, -4.5, 1.88)" filter="url(#Path_7)">
      <path id="Path_7-2" data-name="Path 7" d="M31.377,24a8.71,8.71,0,1,1-8.71-8.71A8.71,8.71,0,0,1,31.377,24Z" transform="translate(15.42 6.69)" fill="#fff"/>
    </g>
    <g transform="matrix(1, 0, 0, 1, -4.5, 1.88)" filter="url(#Path_8)">
      <path id="Path_8-2" data-name="Path 8" d="M58.047,15.146H49.791a2.458,2.458,0,0,1-1.818-.818c-4.3-4.817-5.923-6.453-7.68-6.453H27.343c-1.772,0-3.514,1.636-7.831,6.468a2.411,2.411,0,0,1-1.8.8h-.621V13.934a1.215,1.215,0,0,0-1.212-1.212H11.937a1.215,1.215,0,0,0-1.212,1.212v1.212H9.59A4.912,4.912,0,0,0,4.5,19.8v26.66A5.244,5.244,0,0,0,9.574,51.5H58.047a4.855,4.855,0,0,0,4.62-5.044V19.8A4.515,4.515,0,0,0,58.047,15.146ZM34.189,45.5a12.95,12.95,0,1,1,12.33-12.33A12.963,12.963,0,0,1,34.189,45.5Zm13.936-21.57a1.969,1.969,0,1,1,1.969-1.969A1.965,1.965,0,0,1,48.125,23.931Z" transform="translate(4.5 -1.87)" fill="#fff"/>
    </g>
  </g>
</svg>
