<svg id="Icon_ionic-ios-checkbox-outline" data-name="Icon ionic-ios-checkbox-outline" xmlns="http://www.w3.org/2000/svg" width="20" height="20" viewBox="0 0 20 20">
  <path id="Icon_ionic-ios-checkbox" data-name="Icon ionic-ios-checkbox" d="M22.833,4.5H6.167A1.665,1.665,0,0,0,4.5,6.167V22.833A1.665,1.665,0,0,0,6.167,24.5H22.833A1.665,1.665,0,0,0,24.5,22.833V6.167A1.665,1.665,0,0,0,22.833,4.5ZM20.1,11.505,13.135,18.5H13.13a.941.941,0,0,1-.6.286.912.912,0,0,1-.609-.3L9,15.573a.208.208,0,0,1,0-.3l.927-.927a.2.2,0,0,1,.292,0l2.313,2.312,6.354-6.4a.206.206,0,0,1,.146-.062h0a.189.189,0,0,1,.146.063l.911.943A.205.205,0,0,1,20.1,11.505Z" transform="translate(-4.5 -4.5)" fill=""/>
</svg>
