<svg id="Icon_ionic-ios-checkbox-outline" data-name="Icon ionic-ios-checkbox-outline" xmlns="http://www.w3.org/2000/svg" width="20" height="20" viewBox="0 0 20 20">
  <path id="Path_21629" data-name="Path 21629" d="M22.833,4.5H6.167A1.665,1.665,0,0,0,4.5,6.167V22.833A1.665,1.665,0,0,0,6.167,24.5H22.833A1.665,1.665,0,0,0,24.5,22.833V6.167A1.665,1.665,0,0,0,22.833,4.5Zm.208,18.125a.418.418,0,0,1-.417.417H6.375a.418.418,0,0,1-.417-.417V6.375a.418.418,0,0,1,.417-.417h16.25a.418.418,0,0,1,.417.417Z" transform="translate(-4.5 -4.5)" fill="#1F2937"/>
</svg>
