<svg xmlns="http://www.w3.org/2000/svg" width="12.637" height="9.225" viewBox="0 0 12.637 9.225">
  <path id="Checkbox_icon_shape" data-name="Checkbox/icon/shape" d="M15,5.283,13.969,4.27a.223.223,0,0,0-.076-.05A.231.231,0,0,0,13.8,4.2a.222.222,0,0,0-.091.016.213.213,0,0,0-.076.051L6.476,11.145l-2.6-2.483a.227.227,0,0,0-.075-.05.237.237,0,0,0-.179,0,.227.227,0,0,0-.075.05l-1.045,1a.221.221,0,0,0-.052.073.213.213,0,0,0,0,.173.223.223,0,0,0,.052.073L5.784,13.11a1.06,1.06,0,0,0,.687.318,1.108,1.108,0,0,0,.681-.308h0L15,5.6a.23.23,0,0,0,0-.318Z" transform="translate(-2.428 -4.203)" fill="#fafafa"/>
</svg>
