<svg xmlns="http://www.w3.org/2000/svg" width="119" height="119" viewBox="0 0 119 119">
  <path id="Icon_ionic-ios-close-circle" data-name="Icon ionic-ios-close-circle" d="M62.875,3.375a59.5,59.5,0,1,0,59.5,59.5A59.491,59.491,0,0,0,62.875,3.375ZM77.95,84.415,62.875,69.34,47.8,84.415a4.571,4.571,0,1,1-6.465-6.465L56.41,62.875,41.335,47.8A4.571,4.571,0,0,1,47.8,41.335L62.875,56.41,77.95,41.335A4.571,4.571,0,0,1,84.415,47.8L69.34,62.875,84.415,77.95a4.593,4.593,0,0,1,0,6.465A4.541,4.541,0,0,1,77.95,84.415Z" transform="translate(-3.375 -3.375)" fill="#f26868"/>
</svg>
