<svg xmlns="http://www.w3.org/2000/svg" width="40" height="40" viewBox="0 0 40 40">
  <g id="Group_10457" data-name="Group 10457" transform="translate(-134 -294)">
    <rect id="Button_container" data-name="Button/container" width="40" height="40" rx="4" transform="translate(134 294)" fill="#2a882a"/>
    <path id="Icon_awesome-check" data-name="Icon awesome-check" d="M6.793,19.2l-6.5-6.5a1,1,0,0,1,0-1.414L1.707,9.87a1,1,0,0,1,1.414,0L7.5,14.249,16.879,4.87a1,1,0,0,1,1.414,0l1.414,1.414a1,1,0,0,1,0,1.414L8.207,19.2A1,1,0,0,1,6.793,19.2Z" transform="translate(144 302.423)" fill="#fff"/>
  </g>
</svg>
