<svg xmlns="http://www.w3.org/2000/svg" width="20" height="20" viewBox="0 0 20 20">
  <g id="Group_179" data-name="Group 179" transform="translate(-87.5 -358)">
    <g id="Icon_material-dashboard" data-name="Icon material-dashboard" transform="translate(83 353.5)" fill="none">
      <path d="M4.5,15.611h8.889V4.5H4.5Zm0,8.889h8.889V17.833H4.5Zm11.111,0H24.5V13.389H15.611Zm0-20v6.667H24.5V4.5Z" stroke="none"/>
      <path d="M 23.5 23.5 L 23.5 14.38888931274414 L 16.61110877990723 14.38888931274414 L 16.61110877990723 23.5 L 23.5 23.5 M 12.38888931274414 23.5 L 12.38888931274414 18.83332824707031 L 5.499999046325684 18.83332824707031 L 5.499999046325684 23.5 L 12.38888931274414 23.5 M 12.38888931274414 14.61110877990723 L 12.38888931274414 5.499999046325684 L 5.499999046325684 5.499999046325684 L 5.499999046325684 14.61110877990723 L 12.38888931274414 14.61110877990723 M 23.5 10.16666889190674 L 23.5 5.499999046325684 L 16.61110877990723 5.499999046325684 L 16.61110877990723 10.16666889190674 L 23.5 10.16666889190674 M 24.5 24.5 L 15.61110877990723 24.5 L 15.61110877990723 13.38888931274414 L 24.5 13.38888931274414 L 24.5 24.5 Z M 13.38888931274414 24.5 L 4.499999046325684 24.5 L 4.499999046325684 17.83332824707031 L 13.38888931274414 17.83332824707031 L 13.38888931274414 24.5 Z M 13.38888931274414 15.61110877990723 L 4.499999046325684 15.61110877990723 L 4.499999046325684 4.499999046325684 L 13.38888931274414 4.499999046325684 L 13.38888931274414 15.61110877990723 Z M 24.5 11.16666889190674 L 15.61110877990723 11.16666889190674 L 15.61110877990723 4.499999046325684 L 24.5 4.499999046325684 L 24.5 11.16666889190674 Z" stroke="none" fill="#fff"/>
    </g>
  </g>
</svg>
