<svg xmlns="http://www.w3.org/2000/svg" width="14.545" height="20" viewBox="0 0 14.545 20"  fill="#000000">
  <path id="Icon_material-sync" data-name="Icon material-sync" d="M13.273,4.227V1.5L9.636,5.136l3.636,3.636V6.045A5.459,5.459,0,0,1,18.727,11.5a5.337,5.337,0,0,1-.636,2.545l1.327,1.327A7.26,7.26,0,0,0,13.273,4.227Zm0,12.727A5.459,5.459,0,0,1,7.818,11.5a5.337,5.337,0,0,1,.636-2.545L7.127,7.627a7.26,7.26,0,0,0,6.145,11.145V21.5l3.636-3.636-3.636-3.636Z" transform="translate(-6 -1.5)" fill=""/>
</svg>
