<svg id="Group_10464" data-name="Group 10464" xmlns="http://www.w3.org/2000/svg" xmlns:xlink="http://www.w3.org/1999/xlink" width="25.007" height="25" viewBox="0 0 25.007 25">
  <defs>
    <clipPath id="clip-path">
      <rect id="Rectangle_3634" data-name="Rectangle 3634" width="25.007" height="25" fill="none"/>
    </clipPath>
  </defs>
  <g id="Group_10462" data-name="Group 10462" clip-path="url(#clip-path)">
    <path id="Path_287" data-name="Path 287" d="M77.088,84.2a7.325,7.325,0,1,1,7.295,7.325A7.325,7.325,0,0,1,77.088,84.2m5.883.621c-.067-.071-.114-.118-.159-.167a1.292,1.292,0,1,0-1.955,1.689q.53.641,1.082,1.265a1.272,1.272,0,0,0,1.985,0q2.038-2.357,4.058-4.729a1.277,1.277,0,0,0-.123-1.812,1.292,1.292,0,0,0-1.832.129c-.152.169-.294.346-.44.52l-2.616,3.107" transform="translate(-71.896 -71.695)" fill="#0181e3"/>
    <path id="Path_288" data-name="Path 288" d="M3.969,27.432c-.269-.267-.539-.52-.79-.791a.379.379,0,0,1-.111-.3.369.369,0,0,1,.268-.173q1.577-.2,3.157-.369c.378-.042.449.046.4.427q-.175,1.478-.346,2.957a.552.552,0,0,1-.028.173c-.048.1-.095.242-.174.267a.382.382,0,0,1-.3-.111c-.287-.271-.556-.559-.846-.855a10.058,10.058,0,0,0-1.534,1.762,10.783,10.783,0,0,0,11.34,16.626,1.382,1.382,0,0,1,.64,0,.809.809,0,0,1,.556.839.845.845,0,0,1-.663.791,11.914,11.914,0,0,1-3.123.371A12.366,12.366,0,0,1,.648,40.409,12.167,12.167,0,0,1,3.815,27.594l.154-.161" transform="translate(0 -24.057)"/>
    <path id="Path_289" data-name="Path 289" d="M143.165,21.6c.312.306.582.559.835.828.066.069.133.21.1.277a.377.377,0,0,1-.262.182q-1.6.2-3.208.373c-.326.036-.406-.06-.367-.394q.176-1.516.353-3.033a.545.545,0,0,1,.03-.173c.041-.084.088-.21.156-.227a.359.359,0,0,1,.285.086c.292.278.567.574.918.935.168-.2.31-.384.468-.554a10.663,10.663,0,0,0,2.923-8.12,10.791,10.791,0,0,0-8.911-9.893,10.919,10.919,0,0,0-4.382.144.871.871,0,0,1-1-.341.8.8,0,0,1,.019-.966,1.116,1.116,0,0,1,.532-.344,12.147,12.147,0,0,1,9.786,1.644,11.949,11.949,0,0,1,5.508,8.367,12.21,12.21,0,0,1-3.573,11.048,2.033,2.033,0,0,1-.213.161" transform="translate(-122.134 0)"/>
    <path id="Path_290" data-name="Path 290" d="M147.152,148.226a2.332,2.332,0,0,1-.205.376q-1.975,2.314-3.959,4.62a.441.441,0,0,1-.763,0q-.5-.582-1-1.172a.434.434,0,0,1-.012-.65c.2-.181.441-.15.662.085.121.129.24.26.361.388.326.346.547.345.85-.014q1.433-1.7,2.863-3.4a2.748,2.748,0,0,1,.415-.472.586.586,0,0,1,.451-.1c.13.039.221.211.338.335" transform="translate(-131.572 -137.918)" fill="#0181e3"/>
  </g>
</svg>
