<svg xmlns="http://www.w3.org/2000/svg" width="9.054" height="10.862" viewBox="0 0 9.054 10.862">
  <path id="Icon_ionic-ios-flag" data-name="Icon ionic-ios-flag" d="M15.538,4.975c-.088.014-.181.028-.28.04a16.674,16.674,0,0,1-1.714.147,10.408,10.408,0,0,1-2.212-.345A10.834,10.834,0,0,0,9.052,4.5a4.177,4.177,0,0,0-2.186.379l-.116.082v9.993a.4.4,0,0,0,.348.4.4.4,0,0,0,.444-.393V10.6a.23.23,0,0,1,.181-.223,6.864,6.864,0,0,1,1.329-.11,10.594,10.594,0,0,1,2.167.438,9.972,9.972,0,0,0,2.359.325,13.41,13.41,0,0,0,2.031-.187.228.228,0,0,0,.2-.223V5.2A.23.23,0,0,0,15.538,4.975Z" transform="translate(-6.75 -4.5)" fill="#fff"/>
</svg>
