<svg xmlns="http://www.w3.org/2000/svg" width="35" height="35" viewBox="0 0 35 35">
  <g id="Group_163" data-name="Group 163" transform="translate(-53 -267)">
    <g id="Ellipse_10" data-name="Ellipse 10" transform="translate(53 267)" fill="none" stroke="" stroke-width="1">
      <circle cx="17.5" cy="17.5" r="17.5" stroke="none"/>
      <circle cx="17.5" cy="17.5" r="17" fill="none"/>
    </g>
    <path id="Top_bar_Header_Icon" data-name="Top bar/Header/Icon" d="M20.146,11.509a.949.949,0,0,0-.007,1.29l4.055,4.269H8.744a.913.913,0,0,0,0,1.823H24.194l-4.061,4.269a.956.956,0,0,0,.007,1.29.836.836,0,0,0,1.222-.007l5.5-5.819h0a1.029,1.029,0,0,0,.18-.287.907.907,0,0,0,.067-.351.938.938,0,0,0-.247-.638l-5.5-5.819A.823.823,0,0,0,20.146,11.509Z" transform="translate(52.711 266.299)" fill=""/>
  </g>
</svg>
