<svg xmlns="http://www.w3.org/2000/svg" width="27.6" height="27.6" viewBox="0 0 27.6 27.6">
  <g id="Group_14674" data-name="Group 14674" transform="translate(-16.5 -627.137)">
    <path id="Path_31266" data-name="Path 31266" d="M-156.555,8115.647l7.606-9.206,3.7,4.887,5.686-7.385,8.575,12.245" transform="translate(174 -7465)" fill="none" stroke="#ef3f48" stroke-width="2"/>
    <g id="Icon_material-photo" data-name="Icon material-photo" transform="translate(12 622.637)" fill="none">
      <path d="M32.1,29.033V7.567A3.076,3.076,0,0,0,29.033,4.5H7.567A3.076,3.076,0,0,0,4.5,7.567V29.033A3.076,3.076,0,0,0,7.567,32.1H29.033A3.076,3.076,0,0,0,32.1,29.033Z" stroke="none"/>
      <path d="M 29.0333423614502 30.10000228881836 C 29.61153221130371 30.10000228881836 30.10000228881836 29.61153221130371 30.10000228881836 29.0333423614502 L 30.10000228881836 7.566673278808594 C 30.10000228881836 6.98848295211792 29.61153221130371 6.500002861022949 29.0333423614502 6.500002861022949 L 7.566673278808594 6.500002861022949 C 6.98848295211792 6.500002861022949 6.500002861022949 6.98848295211792 6.500002861022949 7.566673278808594 L 6.500002861022949 29.0333423614502 C 6.500002861022949 29.61153221130371 6.98848295211792 30.10000228881836 7.566673278808594 30.10000228881836 L 29.0333423614502 30.10000228881836 M 29.0333423614502 32.10000228881836 L 7.566673278808594 32.10000228881836 C 5.880002975463867 32.10000228881836 4.500002861022949 30.72001266479492 4.500002861022949 29.0333423614502 L 4.500002861022949 7.566673278808594 C 4.500002861022949 5.880002975463867 5.880002975463867 4.500002861022949 7.566673278808594 4.500002861022949 L 29.0333423614502 4.500002861022949 C 30.72001266479492 4.500002861022949 32.10000228881836 5.880002975463867 32.10000228881836 7.566673278808594 L 32.10000228881836 29.0333423614502 C 32.10000228881836 30.72001266479492 30.72001266479492 32.10000228881836 29.0333423614502 32.10000228881836 Z" stroke="none" fill="#000"/>
    </g>
    <circle id="Ellipse_658" data-name="Ellipse 658" cx="3" cy="3" r="3" transform="translate(21 632)" fill="none" stroke="#ef3f48" stroke-width="2"/>
  </g>
</svg>
