<svg xmlns="http://www.w3.org/2000/svg" width="12.004" height="12" viewBox="0 0 12.004 12">
  <g id="Icon_ionic-ios-home" data-name="Icon ionic-ios-home" transform="translate(-3.374 -3.375)">
    <path id="Path_245" data-name="Path 245" d="M11.438,7.282a.113.113,0,0,0-.144,0l-4.5,3.6a.121.121,0,0,0-.043.089v6.635a.058.058,0,0,0,.058.058H9.923a.058.058,0,0,0,.058-.058V13.568a.058.058,0,0,1,.058-.058h2.654a.058.058,0,0,1,.058.058v4.038a.058.058,0,0,0,.058.058h3.115a.058.058,0,0,0,.058-.058V10.972a.116.116,0,0,0-.043-.089Z" transform="translate(-1.991 -2.289)"/>
    <path id="Path_246" data-name="Path 246" d="M15.221,7.881,9.769,3.513a.633.633,0,0,0-.79,0L6.605,5.443V4.226a.058.058,0,0,0-.058-.058H4.817a.058.058,0,0,0-.058.058v2.66L3.527,7.9a.4.4,0,0,0-.035.6.4.4,0,0,0,.286.118.406.406,0,0,0,.254-.089l5.3-4.269a.052.052,0,0,1,.037-.012.07.07,0,0,1,.038.012l5.3,4.252a.406.406,0,0,0,.254.089.409.409,0,0,0,.407-.427A.41.41,0,0,0,15.221,7.881Z"/>
  </g>
</svg>
