<svg id="Component_1" data-name="Component 1" xmlns="http://www.w3.org/2000/svg" width="80" height="27.876" viewBox="0 0 80 27.876">
  <g id="Group_1" data-name="Group 1">
    <path id="Path_1" data-name="Path 1" d="M174.339,84.212a.418.418,0,0,1,0-.642l.191-.161a.415.415,0,0,0,.143-.414l-.507-2.226a.419.419,0,0,0-.306-.314l-.243-.058a.419.419,0,0,1-.276-.58l.105-.228a.419.419,0,0,0-.053-.434l-1.418-1.784a.415.415,0,0,0-.411-.148l-.243.053a.417.417,0,0,1-.5-.4l-.005-.251a.416.416,0,0,0-.233-.369l-2.05-.991a.413.413,0,0,0-.432.045l-.2.153a.414.414,0,0,1-.625-.141l-.11-.226a.413.413,0,0,0-.371-.228h-2.273a.413.413,0,0,0-.371.228l-.11.226a.415.415,0,0,1-.625.141l-.2-.153a.413.413,0,0,0-.432-.045l-2.05.991a.419.419,0,0,0-.236.369l0,.251a.417.417,0,0,1-.5.4l-.246-.053a.413.413,0,0,0-.409.148l-1.418,1.784a.419.419,0,0,0-.053.434l.105.228a.418.418,0,0,1-.279.58l-.243.058a.42.42,0,0,0-.3.314L156.647,83a.419.419,0,0,0,.141.414l.193.161a.418.418,0,0,1,0,.642l-.193.158a.419.419,0,0,0-.141.414l.507,2.228a.416.416,0,0,0,.3.311l.243.058a.419.419,0,0,1,.279.58l-.105.228a.418.418,0,0,0,.053.434l1.418,1.787a.412.412,0,0,0,.409.146l.246-.05a.414.414,0,0,1,.5.4l0,.251a.418.418,0,0,0,.236.369l2.05.991a.413.413,0,0,0,.432-.045l.2-.153a.413.413,0,0,1,.625.143l.11.223a.416.416,0,0,0,.371.231H166.8a.416.416,0,0,0,.371-.231l.11-.223a.413.413,0,0,1,.625-.143l.2.153a.413.413,0,0,0,.432.045l2.05-.991a.416.416,0,0,0,.233-.369l.005-.251a.414.414,0,0,1,.5-.4l.243.05a.414.414,0,0,0,.411-.146l1.418-1.787a.419.419,0,0,0,.053-.434l-.105-.228a.419.419,0,0,1,.276-.58l.243-.058a.416.416,0,0,0,.306-.311l.507-2.228a.415.415,0,0,0-.143-.414ZM165.66,89.58a5.69,5.69,0,1,1,5.691-5.709A5.7,5.7,0,0,1,165.66,89.58Z" transform="translate(-136.435 -65.038)" fill="#fff"/>
    <path id="Path_2" data-name="Path 2" d="M26.428,21.779v9.259H23.191V21.779a5.082,5.082,0,1,0-10.162,0v9.259H9.792V3.412h3.237V15.456a8.58,8.58,0,0,1,5.081-1.995,8.279,8.279,0,0,1,5.909,2.409A8.373,8.373,0,0,1,26.428,21.779Z" transform="translate(-9.792 -3.412)" fill="#fff"/>
    <path id="Path_3" data-name="Path 3" d="M330.107,84.777v9.259h-3.237V84.777a5.081,5.081,0,1,0-10.162,0v9.259h-3.237V76.8h3.237v1.656a8.579,8.579,0,0,1,5.081-1.995,8.279,8.279,0,0,1,5.909,2.409A8.372,8.372,0,0,1,330.107,84.777Z" transform="translate(-271.695 -66.41)" fill="#fff"/>
    <path id="Path_4" data-name="Path 4" d="M474.818,83.3a5.626,5.626,0,0,1-1.6,3.265,5.834,5.834,0,0,1-8.25-8.25,5.7,5.7,0,0,1,3.3-1.614l.391-3.277a9.148,9.148,0,0,0-8.614,9.016A9,9,0,0,0,475.455,88.8a8.932,8.932,0,0,0,2.65-5.889Z" transform="translate(-398.105 -63.788)" fill="#fff"/>
  </g>
</svg>
