<svg xmlns="http://www.w3.org/2000/svg" width="6.25" height="10" viewBox="0 0 6.25 10">
  <g id="Group_109" data-name="Group 109" transform="translate(-4.571 -5.928)">
    <path id="Icon_metro-location" data-name="Icon metro-location" d="M11.48,1.928A3.125,3.125,0,0,0,8.355,5.053c0,3.125,3.125,6.875,3.125,6.875S14.6,8.178,14.6,5.053A3.125,3.125,0,0,0,11.48,1.928Zm0,5.039a1.914,1.914,0,1,1,1.914-1.914A1.914,1.914,0,0,1,11.48,6.967ZM10.269,5.053A1.211,1.211,0,1,1,11.48,6.264,1.211,1.211,0,0,1,10.269,5.053Z" transform="translate(-3.784 4)" fill="#fff"/>
  </g>
</svg>
