<svg xmlns="http://www.w3.org/2000/svg" width="100" height="57" viewBox="0 0 100 57">
  <g id="Group_2" data-name="Group 2" transform="translate(-137 -246)">
    <g id="Component_1" data-name="Component 1" transform="translate(137 246)">
      <g id="Group_1" data-name="Group 1">
        <path id="Path_1" data-name="Path 1" d="M178.765,86.548a.523.523,0,0,1,0-.8l.238-.2a.519.519,0,0,0,.179-.518l-.634-2.782a.524.524,0,0,0-.383-.392l-.3-.072a.523.523,0,0,1-.345-.724l.132-.285a.524.524,0,0,0-.066-.543L175.81,78a.519.519,0,0,0-.514-.185l-.3.066a.521.521,0,0,1-.624-.5l-.006-.314a.52.52,0,0,0-.292-.461l-2.563-1.239a.517.517,0,0,0-.539.056l-.248.191a.517.517,0,0,1-.781-.176l-.138-.282a.517.517,0,0,0-.464-.285h-2.842a.517.517,0,0,0-.464.285l-.138.282a.518.518,0,0,1-.781.176l-.248-.191a.517.517,0,0,0-.539-.056L161.762,76.6a.523.523,0,0,0-.295.461l0,.314a.521.521,0,0,1-.624.5l-.307-.066a.516.516,0,0,0-.511.185l-1.772,2.23a.523.523,0,0,0-.066.543l.132.285a.523.523,0,0,1-.348.724l-.3.072a.524.524,0,0,0-.38.392l-.634,2.782a.524.524,0,0,0,.176.518l.241.2a.523.523,0,0,1,0,.8l-.241.2a.523.523,0,0,0-.176.517l.634,2.785a.521.521,0,0,0,.38.389l.3.072a.524.524,0,0,1,.348.724l-.132.285a.523.523,0,0,0,.066.543l1.772,2.233a.514.514,0,0,0,.511.182l.307-.063a.518.518,0,0,1,.624.5l0,.314a.523.523,0,0,0,.295.461l2.563,1.239a.516.516,0,0,0,.539-.056l.248-.191a.517.517,0,0,1,.781.179l.138.279a.52.52,0,0,0,.464.289h2.842a.519.519,0,0,0,.464-.289l.138-.279a.516.516,0,0,1,.781-.179l.248.191a.517.517,0,0,0,.539.056l2.563-1.239a.52.52,0,0,0,.292-.461l.006-.314a.517.517,0,0,1,.624-.5l.3.063a.517.517,0,0,0,.514-.182l1.772-2.233a.523.523,0,0,0,.066-.543l-.132-.285a.524.524,0,0,1,.345-.724l.3-.072a.52.52,0,0,0,.383-.389l.634-2.785a.519.519,0,0,0-.179-.517Zm-10.849,6.709a7.112,7.112,0,1,1,7.114-7.136A7.127,7.127,0,0,1,167.916,93.258Z" transform="translate(-131.385 -62.58)" fill="#1f2937"/>
        <path id="Path_2" data-name="Path 2" d="M30.587,26.371V37.944H26.541V26.371a6.352,6.352,0,1,0-12.7,0V37.944H9.792V3.412h4.046V18.467a10.725,10.725,0,0,1,6.352-2.493,10.349,10.349,0,0,1,7.386,3.011A10.466,10.466,0,0,1,30.587,26.371Z" transform="translate(-9.792 -3.412)" fill="#1f2937"/>
        <path id="Path_3" data-name="Path 3" d="M334.266,86.856V98.43H330.22V86.856a6.352,6.352,0,1,0-12.7,0V98.43h-4.046V76.883h4.046v2.07a10.723,10.723,0,0,1,6.351-2.493,10.349,10.349,0,0,1,7.386,3.011A10.465,10.465,0,0,1,334.266,86.856Z" transform="translate(-261.251 -63.898)" fill="#1f2937"/>
        <path id="Path_4" data-name="Path 4" d="M478.511,85.764a7.033,7.033,0,0,1-2,4.081A7.292,7.292,0,0,1,466.2,79.532a7.129,7.129,0,0,1,4.125-2.017l.489-4.1a11.434,11.434,0,0,0-10.768,11.27,11.245,11.245,0,0,0,19.262,7.951,11.165,11.165,0,0,0,3.312-7.362Z" transform="translate(-382.62 -61.381)" fill="#1f2937"/>
      </g>
    </g>
    <rect id="Rectangle_3230" data-name="Rectangle 3230" width="100" height="17" transform="translate(137 286)" fill="#1f2937"/>
    <text id="PARTNER" transform="translate(142 299)" fill="#fff" font-size="12" font-family="honc-Bold, honc" font-weight="700"><tspan x="0" y="0" letter-spacing="0.55em">PARTNE</tspan><tspan y="0">R</tspan></text>
  </g>
</svg>
