<svg xmlns="http://www.w3.org/2000/svg" width="120" height="68.4" viewBox="0 0 120 68.4">
  <g id="Group_2" data-name="Group 2" transform="translate(-137 -246)">
    <g id="Component_1" data-name="Component 1" transform="translate(137 246)">
      <g id="Group_1" data-name="Group 1">
        <path id="Path_1" data-name="Path 1" d="M183.191,88.885a.627.627,0,0,1,0-.964l.286-.241a.623.623,0,0,0,.215-.621l-.76-3.338a.629.629,0,0,0-.459-.47l-.365-.087a.628.628,0,0,1-.414-.869l.158-.343a.629.629,0,0,0-.079-.651l-2.127-2.676a.623.623,0,0,0-.617-.222l-.365.079a.625.625,0,0,1-.749-.6l-.008-.376a.624.624,0,0,0-.35-.553l-3.075-1.487a.62.62,0,0,0-.647.068l-.3.23a.621.621,0,0,1-.937-.211l-.166-.339a.62.62,0,0,0-.557-.343h-3.41a.62.62,0,0,0-.557.343l-.166.339a.622.622,0,0,1-.937.211l-.3-.23a.62.62,0,0,0-.647-.068l-3.075,1.487a.628.628,0,0,0-.354.553l0,.376a.626.626,0,0,1-.749.6l-.369-.079a.62.62,0,0,0-.613.222L158.572,81.3a.628.628,0,0,0-.079.651l.158.343a.628.628,0,0,1-.418.869l-.365.087a.629.629,0,0,0-.455.47l-.76,3.338a.628.628,0,0,0,.211.621l.29.241a.627.627,0,0,1,0,.964l-.29.237a.628.628,0,0,0-.211.621l.76,3.342a.625.625,0,0,0,.455.467l.365.087a.629.629,0,0,1,.418.869l-.158.343a.627.627,0,0,0,.079.651l2.126,2.68a.617.617,0,0,0,.613.218l.369-.075a.621.621,0,0,1,.749.6l0,.376a.628.628,0,0,0,.354.553l3.075,1.487a.62.62,0,0,0,.647-.068l.3-.23a.62.62,0,0,1,.937.215l.166.335a.624.624,0,0,0,.557.346h3.41a.623.623,0,0,0,.557-.346l.166-.335a.619.619,0,0,1,.937-.215l.3.23a.62.62,0,0,0,.647.068l3.075-1.487a.624.624,0,0,0,.35-.553l.008-.376a.621.621,0,0,1,.749-.6l.365.075a.621.621,0,0,0,.617-.218l2.127-2.68a.628.628,0,0,0,.079-.651l-.158-.343a.629.629,0,0,1,.414-.869l.365-.087a.624.624,0,0,0,.459-.467l.76-3.342a.623.623,0,0,0-.215-.621Zm-13.019,8.051a8.535,8.535,0,1,1,8.536-8.563A8.552,8.552,0,0,1,170.172,96.935Z" transform="translate(-126.334 -60.123)" fill="#fff"/>
        <path id="Path_2" data-name="Path 2" d="M34.746,30.962V44.85H29.89V30.962a7.622,7.622,0,1,0-15.243,0V44.85H9.792V3.412h4.855V21.478a12.87,12.87,0,0,1,7.622-2.992A12.418,12.418,0,0,1,31.132,22.1,12.559,12.559,0,0,1,34.746,30.962Z" transform="translate(-9.792 -3.412)" fill="#000"/>
        <path id="Path_3" data-name="Path 3" d="M338.425,88.936v13.888H333.57V88.936a7.622,7.622,0,1,0-15.243,0v13.888h-4.855V76.967h4.855v2.484a12.868,12.868,0,0,1,7.621-2.992,12.419,12.419,0,0,1,8.863,3.613A12.558,12.558,0,0,1,338.425,88.936Z" transform="translate(-250.807 -61.385)" fill="#000"/>
        <path id="Path_4" data-name="Path 4" d="M482.2,88.234a8.44,8.44,0,0,1-2.4,4.9,8.751,8.751,0,0,1-12.376-12.375,8.555,8.555,0,0,1,4.949-2.42l.587-4.916a13.721,13.721,0,0,0-12.921,13.524,13.494,13.494,0,0,0,23.114,9.541,13.4,13.4,0,0,0,3.975-8.834Z" transform="translate(-367.134 -58.973)" fill="#000"/>
      </g>
    </g>
    <rect id="Rectangle_3230" data-name="Rectangle 3230" width="120" height="20.4" transform="translate(137 294)" fill="#000"/>
    <text id="PARTNER" transform="translate(143 309.8)" fill="#fff" font-size="14" font-family="honc-Bold, honc" font-weight="700"><tspan x="0" y="0" letter-spacing="0.55em">PARTNE</tspan><tspan y="0">R</tspan></text>
  </g>
</svg>
