<svg xmlns="http://www.w3.org/2000/svg" width="15.286" height="21" viewBox="0 0 15.286 21">
  <g id="Group_180" data-name="Group 180" transform="translate(-129.357 -357.5)">
    <path id="Icon_awesome-rupee-sign" data-name="Icon awesome-rupee-sign" d="M13.75,5.107a.536.536,0,0,0,.536-.536V2.786a.536.536,0,0,0-.536-.536H.536A.536.536,0,0,0,0,2.786v2a.536.536,0,0,0,.536.536H4.343A3.221,3.221,0,0,1,7.065,6.536H.536A.536.536,0,0,0,0,7.071V8.857a.536.536,0,0,0,.536.536H7.623A3.085,3.085,0,0,1,4.286,12.01H.536A.536.536,0,0,0,0,12.546v2.367a.536.536,0,0,0,.172.394l7.368,6.8a.536.536,0,0,0,.363.142H11.59a.536.536,0,0,0,.363-.929L5.217,15.1a6.116,6.116,0,0,0,6.175-5.71H13.75a.536.536,0,0,0,.536-.536V7.071a.536.536,0,0,0-.536-.536H11.13a6.115,6.115,0,0,0-.636-1.429Z" transform="translate(129.857 355.75)" fill="white" stroke="#fff" stroke-width="1"/>
  </g>
</svg>
