<svg xmlns="http://www.w3.org/2000/svg" width="10" height="10" viewBox="0 0 10 10">
  <path id="Icon_ionic-ios-checkmark-circle" data-name="Icon ionic-ios-checkmark-circle" d="M8.375,3.375a5,5,0,1,0,5,5A5,5,0,0,0,8.375,3.375Zm2.56,3.618L7.721,10.221h0a.434.434,0,0,1-.279.132.421.421,0,0,1-.281-.137L5.812,8.87a.1.1,0,0,1,0-.137l.428-.428a.093.093,0,0,1,.135,0L7.442,9.373l2.933-2.954a.1.1,0,0,1,.067-.029h0a.087.087,0,0,1,.067.029l.421.435A.1.1,0,0,1,10.935,6.993Z" transform="translate(-3.375 -3.375)" fill="#0181e3"/>
</svg>
