<svg xmlns="http://www.w3.org/2000/svg" width="140" height="79.8" viewBox="0 0 140 79.8">
  <g id="Group_10461" data-name="Group 10461" transform="translate(-137 -246)">
    <g id="Component_1" data-name="Component 1" transform="translate(137 246)">
      <g id="Group_1" data-name="Group 1">
        <path id="Path_1" data-name="Path 1" d="M187.617,91.221a.732.732,0,0,1,0-1.124l.334-.281a.727.727,0,0,0,.25-.725l-.887-3.895a.734.734,0,0,0-.536-.549l-.426-.1a.733.733,0,0,1-.483-1.014l.184-.4a.734.734,0,0,0-.092-.76L183.48,79.25a.727.727,0,0,0-.72-.259l-.426.092a.73.73,0,0,1-.874-.7l-.009-.439a.728.728,0,0,0-.408-.646l-3.588-1.734a.723.723,0,0,0-.755.079l-.347.268a.724.724,0,0,1-1.093-.246l-.193-.4a.723.723,0,0,0-.65-.4h-3.978a.723.723,0,0,0-.65.4l-.193.4a.725.725,0,0,1-1.093.246l-.347-.268a.723.723,0,0,0-.755-.079L163.812,77.3a.733.733,0,0,0-.413.646l0,.439a.73.73,0,0,1-.874.7l-.43-.092a.723.723,0,0,0-.716.259l-2.481,3.122a.733.733,0,0,0-.092.76l.184.4a.732.732,0,0,1-.487,1.014l-.426.1a.734.734,0,0,0-.531.549l-.887,3.895a.733.733,0,0,0,.246.725l.338.281a.732.732,0,0,1,0,1.124l-.338.277a.733.733,0,0,0-.246.724l.887,3.9a.729.729,0,0,0,.531.545l.426.1a.734.734,0,0,1,.487,1.014l-.184.4a.732.732,0,0,0,.092.76l2.481,3.127a.72.72,0,0,0,.716.255l.43-.088a.725.725,0,0,1,.874.7l0,.439a.732.732,0,0,0,.413.645l3.588,1.735a.723.723,0,0,0,.755-.079l.347-.268a.723.723,0,0,1,1.093.25l.193.391a.727.727,0,0,0,.65.4h3.978a.727.727,0,0,0,.65-.4l.193-.391a.723.723,0,0,1,1.093-.25l.347.268a.723.723,0,0,0,.755.079l3.588-1.735a.727.727,0,0,0,.408-.645l.009-.439a.724.724,0,0,1,.874-.7l.426.088a.724.724,0,0,0,.72-.255l2.481-3.127a.733.733,0,0,0,.092-.76l-.184-.4a.734.734,0,0,1,.483-1.014l.426-.1a.728.728,0,0,0,.536-.545l.887-3.9a.726.726,0,0,0-.25-.724Zm-15.189,9.393a9.957,9.957,0,1,1,9.959-9.99A9.977,9.977,0,0,1,172.428,100.613Z" transform="translate(-121.284 -57.665)" fill="#fff"/>
        <path id="Path_2" data-name="Path 2" d="M38.9,35.554v16.2H33.24v-16.2a8.893,8.893,0,1,0-17.784,0v16.2H9.792V3.412h5.664V24.489A15.015,15.015,0,0,1,24.348,21a14.488,14.488,0,0,1,10.341,4.215A14.652,14.652,0,0,1,38.9,35.554Z" transform="translate(-9.792 -3.412)" fill="#fff"/>
        <path id="Path_3" data-name="Path 3" d="M342.584,91.015v16.2H336.92v-16.2a8.893,8.893,0,1,0-17.783,0v16.2h-5.664V77.052h5.664v2.9a15.013,15.013,0,0,1,8.892-3.491,14.488,14.488,0,0,1,10.341,4.215A14.651,14.651,0,0,1,342.584,91.015Z" transform="translate(-240.362 -58.873)" fill="#fff"/>
        <path id="Path_4" data-name="Path 4" d="M485.9,90.7a9.845,9.845,0,0,1-2.8,5.713,10.209,10.209,0,0,1-14.438-14.438,9.981,9.981,0,0,1,5.774-2.824l.685-5.735A16.008,16.008,0,0,0,460.046,89.2a15.743,15.743,0,0,0,26.966,11.132,15.631,15.631,0,0,0,4.637-10.306Z" transform="translate(-351.649 -56.565)" fill="#fff"/>
      </g>
    </g>
    <rect id="Rectangle_3230" data-name="Rectangle 3230" width="139.84" height="23.56" transform="translate(137.08 302.24)" fill="#fff"/>
    <path id="Path_286" data-name="Path 286" d="M5.165-8.4a4.169,4.169,0,0,1,1.571.294,3.912,3.912,0,0,1,1.277.823,3.831,3.831,0,0,1,.857,1.252A3.954,3.954,0,0,1,9.18-4.452a3.954,3.954,0,0,1-.311,1.579,3.831,3.831,0,0,1-.857,1.252A3.912,3.912,0,0,1,6.736-.8,4.169,4.169,0,0,1,5.165-.5H3.1V3.36H.78V-8.4ZM3.1-6.233v3.562H5.165a1.757,1.757,0,0,0,.689-.134A1.566,1.566,0,0,0,6.4-3.184a1.751,1.751,0,0,0,.353-.571,1.925,1.925,0,0,0,.126-.7A1.78,1.78,0,0,0,6.4-5.729a1.627,1.627,0,0,0-1.235-.5ZM17.7,3.36,21.814-8.4h2.873L28.819,3.36H26.3l-.706-2.117H20.906L20.2,3.36ZM24.871-.924l-1.613-4.8-1.613,4.8ZM43.906-8.4a3.858,3.858,0,0,1,1.52.3,3.876,3.876,0,0,1,1.243.832,4.02,4.02,0,0,1,.84,1.235A3.75,3.75,0,0,1,47.82-4.5,3.565,3.565,0,0,1,47.2-2.47a3.912,3.912,0,0,1-1.646,1.394l2.6,4.435h-2.5L43.284-.722H41.52V3.36H39.2V-8.4Zm0,5.645a1.441,1.441,0,0,0,.622-.134,1.57,1.57,0,0,0,.5-.378,1.855,1.855,0,0,0,.344-.563A1.814,1.814,0,0,0,45.5-4.5a1.814,1.814,0,0,0-.126-.672,1.749,1.749,0,0,0-.344-.554,1.629,1.629,0,0,0-.5-.37,1.441,1.441,0,0,0-.622-.134H41.52v3.478ZM57.631-8.4h8.652v2.218H63.108V3.36H60.79V-6.182H57.631Zm19.186,0h1.764l5.04,7.174V-8.4h2.318V3.36H84.175l-5.04-7.19V3.36H76.817Zm27.737,0v2.218H99.682v2.5h4.452V-1.5H99.682V1.142h4.956V3.36H97.363V-8.4Zm15.658,0a3.858,3.858,0,0,1,1.52.3,3.876,3.876,0,0,1,1.243.832,4.02,4.02,0,0,1,.84,1.235,3.75,3.75,0,0,1,.311,1.529A3.565,3.565,0,0,1,123.5-2.47a3.912,3.912,0,0,1-1.646,1.394l2.6,4.435h-2.5L119.59-.722h-1.764V3.36h-2.318V-8.4Zm0,5.645a1.441,1.441,0,0,0,.622-.134,1.57,1.57,0,0,0,.5-.378,1.855,1.855,0,0,0,.344-.563,1.813,1.813,0,0,0,.126-.672,1.813,1.813,0,0,0-.126-.672,1.749,1.749,0,0,0-.344-.554,1.629,1.629,0,0,0-.5-.37,1.441,1.441,0,0,0-.622-.134h-2.386v3.478Z" transform="translate(144.312 316.84)"/>
  </g>
</svg>
